<svg width="20" height="20" viewBox="0 0 20 20" fill="none" xmlns="http://www.w3.org/2000/svg">
<g id="Down_Arrow">
<path id="Vector" d="M17.5899 12.3182L12.4502 18.3962C12.1488 18.7519 11.7735 19.0377 11.3505 19.2337C10.9275 19.4297 10.4669 19.5312 10.0007 19.5312C9.53447 19.5312 9.07384 19.4297 8.65084 19.2337C8.22783 19.0377 7.85258 18.7519 7.55119 18.3962L2.41151 12.3182C1.38416 11.1034 2.25088 9.24598 3.84537 9.24598H5.52803V2.80415C5.52858 2.49691 5.58964 2.19279 5.70772 1.90915C5.8258 1.62551 5.99859 1.36791 6.21623 1.15104C6.43387 0.934183 6.69209 0.762312 6.97615 0.645245C7.26021 0.528178 7.56454 0.468208 7.87178 0.468757H12.1296C12.4368 0.468208 12.7412 0.528178 13.0252 0.645245C13.3093 0.762312 13.5675 0.934183 13.7851 1.15104C14.0028 1.36791 14.1756 1.62551 14.2937 1.90915C14.4117 2.19279 14.4728 2.49691 14.4733 2.80415V9.2461H16.156C17.7507 9.2461 18.6173 11.1032 17.5899 12.3182Z" fill="#E64D2E"/>
<path id="Vector_2" d="M5.52779 9.90836C5.52756 10.0325 5.47805 10.1514 5.39014 10.239C5.30223 10.3266 5.18313 10.3756 5.05904 10.3754H3.84513C2.95154 10.3754 2.28654 10.9588 2.05544 11.6854C1.68552 10.5487 2.51009 9.24664 3.84513 9.24664H5.52779V9.90836ZM16.1558 10.3754H14.9418C14.8178 10.3756 14.6987 10.3266 14.6107 10.239C14.5228 10.1514 14.4733 10.0325 14.4731 9.90836V9.24676H16.1558C17.4908 9.24676 18.3154 10.5487 17.9454 11.6855C17.7143 10.9588 17.0493 10.3754 16.1558 10.3754ZM12.1293 1.59832H7.87154C7.5643 1.59777 7.25996 1.65774 6.9759 1.77481C6.69184 1.89188 6.43362 2.06375 6.21599 2.28061C5.99835 2.49747 5.82556 2.75507 5.70747 3.03871C5.58939 3.32235 5.52833 3.62647 5.52779 3.93371V2.8048C5.52833 2.49757 5.58939 2.19345 5.70747 1.90981C5.82556 1.62617 5.99835 1.36856 6.21599 1.1517C6.43362 0.934839 6.69184 0.762968 6.9759 0.645901C7.25996 0.528834 7.5643 0.468864 7.87154 0.469413H12.1293C12.4366 0.468864 12.7409 0.528834 13.025 0.645901C13.309 0.762968 13.5673 0.934839 13.7849 1.1517C14.0025 1.36856 14.1753 1.62617 14.2934 1.90981C14.4115 2.19345 14.4726 2.49757 14.4731 2.8048V3.93371C14.4726 3.62647 14.4115 3.32235 14.2934 3.03871C14.1753 2.75507 14.0025 2.49747 13.7849 2.28061C13.5673 2.06375 13.309 1.89188 13.025 1.77481C12.7409 1.65774 12.4366 1.59777 12.1293 1.59832Z" fill="#921F08"/>
</g>
<style>
#Down_Arrow {
	animation: heartbeat 1.5s ease-in-out infinite both;
    transform-box: fill-box;
  transform-origin: center center;
}
@keyframes heartbeat {
  from {
    transform: scale(1);
    transform-origin: center center;
    animation-timing-function: ease-out;
  }
  10% {
    transform: scale(0.91);
    animation-timing-function: ease-in;
  }
  17% {
    transform: scale(0.98);
    animation-timing-function: ease-out;
  }
  33% {
    transform: scale(0.87);
    animation-timing-function: ease-in;
  }
  45% {
    transform: scale(1);
    animation-timing-function: ease-out;
  }
}
</style>
</svg>
