<svg width="20" height="20" viewBox="0 0 20 20" fill="none" xmlns="http://www.w3.org/2000/svg">
<g id="Down_Arrow_2">
<path id="Vector" d="M2.40818 7.68179L7.54787 1.60382C7.84926 1.24812 8.2245 0.962326 8.64751 0.766308C9.07052 0.57029 9.53114 0.468751 9.99736 0.468751C10.4636 0.468751 10.9242 0.57029 11.3472 0.766308C11.7702 0.962326 12.1455 1.24812 12.4469 1.60382L17.5865 7.68179C18.6139 8.89664 17.7472 10.754 16.1527 10.754L14.47 10.754L14.47 17.1959C14.4695 17.5031 14.4084 17.8072 14.2903 18.0909C14.1722 18.3745 13.9995 18.6321 13.7818 18.849C13.5642 19.0658 13.306 19.2377 13.0219 19.3548C12.7378 19.4718 12.4335 19.5318 12.1263 19.5312L7.86845 19.5312C7.56122 19.5318 7.25688 19.4718 6.97282 19.3548C6.68876 19.2377 6.43054 19.0658 6.2129 18.849C5.99526 18.6321 5.82247 18.3745 5.70439 18.0908C5.58631 17.8072 5.52525 17.5031 5.5247 17.1959L5.5247 10.7539L3.84205 10.7539C2.24736 10.7539 1.38076 8.89679 2.40818 7.68179Z" fill="#E64D2E"/>
<path id="Vector_2" d="M14.4703 10.0936C14.4705 9.9695 14.52 9.85058 14.6079 9.76298C14.6958 9.67539 14.8149 9.62631 14.939 9.62653L16.1529 9.62653C17.0465 9.62653 17.7115 9.04317 17.9426 8.31652C18.3125 9.45324 17.488 10.7553 16.1529 10.7553L14.4703 10.7553L14.4703 10.0936ZM3.84229 9.62652L5.0562 9.62652C5.18029 9.62631 5.2994 9.67539 5.3873 9.76298C5.47521 9.85057 5.52472 9.9695 5.52495 10.0936L5.52495 10.7552L3.84229 10.7552C2.50725 10.7552 1.68268 9.45328 2.05261 8.31641C2.28378 9.04316 2.9487 9.62652 3.84229 9.62652ZM7.8687 18.4036L12.1265 18.4036C12.4337 18.4042 12.7381 18.3442 13.0221 18.2271C13.3062 18.1101 13.5644 17.9382 13.7821 17.7213C13.9997 17.5045 14.1725 17.2469 14.2906 16.9632C14.4087 16.6796 14.4697 16.3755 14.4703 16.0682L14.4703 17.1971C14.4697 17.5044 14.4087 17.8085 14.2906 18.0921C14.1725 18.3758 13.9997 18.6334 13.7821 18.8503C13.5644 19.0671 13.3062 19.239 13.0221 19.3561C12.7381 19.4731 12.4337 19.5331 12.1265 19.5325L7.8687 19.5325C7.56146 19.5331 7.25712 19.4731 6.97306 19.3561C6.689 19.239 6.43078 19.0671 6.21315 18.8503C5.99551 18.6334 5.82272 18.3758 5.70464 18.0921C5.58655 17.8085 5.5255 17.5044 5.52495 17.1971L5.52495 16.0682C5.5255 16.3755 5.58655 16.6796 5.70464 16.9632C5.82272 17.2469 5.99551 17.5045 6.21315 17.7213C6.43078 17.9382 6.689 18.1101 6.97306 18.2271C7.25712 18.3442 7.56146 18.4042 7.8687 18.4036Z" fill="#921F08"/>
</g>

<style>
#Down_Arrow_2 {
	animation: heartbeat 1.5s ease-in-out infinite both;
    transform-box: fill-box;
  transform-origin: center center;
}
@keyframes heartbeat {
  from {
    transform: scale(1);
    transform-origin: center center;
    animation-timing-function: ease-out;
  }
  10% {
    transform: scale(0.91);
    animation-timing-function: ease-in;
  }
  17% {
    transform: scale(0.98);
    animation-timing-function: ease-out;
  }
  33% {
    transform: scale(0.87);
    animation-timing-function: ease-in;
  }
  45% {
    transform: scale(1);
    animation-timing-function: ease-out;
  }
}
</style>

</svg>
