<svg width="15" height="15" viewBox="5 1 39 48" fill="none" xmlns="http://www.w3.org/2000/svg">
<g id="Down_Arrow">
<path id="Vector" d="M43.9737 30.7955L31.1245 45.9904C30.371 46.8797 29.4329 47.5942 28.3754 48.0842C27.3178 48.5743 26.1663 48.8281 25.0007 48.8281C23.8352 48.8281 22.6836 48.5743 21.6261 48.0842C20.5686 47.5942 19.6305 46.8797 18.877 45.9904L6.02779 30.7955C3.45943 27.7584 5.62623 23.115 9.61246 23.115H13.8191V7.01037C13.8205 6.24228 13.9731 5.48198 14.2683 4.77288C14.5635 4.06378 14.9955 3.41977 15.5396 2.87761C16.0837 2.33546 16.7292 1.90578 17.4394 1.61312C18.1495 1.32045 18.9104 1.17052 19.6785 1.1719H30.323C31.0911 1.17052 31.8519 1.32045 32.5621 1.61312C33.2722 1.90578 33.9178 2.33546 34.4619 2.87761C35.006 3.41977 35.438 4.06378 35.7332 4.77288C36.0284 5.48198 36.181 6.24228 36.1824 7.01037V23.1153H40.389C44.3757 23.1153 46.5422 27.758 43.9737 30.7955Z" fill="#E64D2E"/>
<path id="Vector_2" d="M13.8185 24.7699C13.8179 25.0802 13.6941 25.3775 13.4744 25.5965C13.2546 25.8154 12.9569 25.9381 12.6466 25.9376H9.61185C7.37787 25.9376 5.71536 27.396 5.13763 29.2126C4.21283 26.3708 6.27425 23.1156 9.61185 23.1156H13.8185V24.7699ZM40.3884 25.9376H37.3536C37.0434 25.9381 36.7457 25.8154 36.5259 25.5965C36.3061 25.3775 36.1823 25.0802 36.1818 24.7699V23.1159H40.3884C43.726 23.1159 45.7874 26.3707 44.8626 29.2129C44.2847 27.396 42.6224 25.9376 40.3884 25.9376ZM30.3224 3.99482H19.6779C18.9098 3.99345 18.1489 4.14338 17.4388 4.43605C16.7286 4.72871 16.0831 5.15839 15.539 5.70054C14.9949 6.2427 14.5629 6.88671 14.2677 7.59581C13.9725 8.30491 13.8199 9.06521 13.8185 9.8333V7.01103C13.8199 6.24294 13.9725 5.48264 14.2677 4.77354C14.5629 4.06444 14.9949 3.42043 15.539 2.87828C16.0831 2.33612 16.7286 1.90645 17.4388 1.61378C18.1489 1.32111 18.9098 1.17118 19.6779 1.17256H30.3224C31.0905 1.17118 31.8513 1.32111 32.5615 1.61378C33.2716 1.90645 33.9172 2.33612 34.4613 2.87828C35.0054 3.42043 35.4373 4.06444 35.7326 4.77354C36.0278 5.48264 36.1804 6.24294 36.1818 7.01103V9.8333C36.1804 9.06521 36.0278 8.30491 35.7326 7.59581C35.4373 6.88671 35.0054 6.2427 34.4613 5.70054C33.9172 5.15839 33.2716 4.72871 32.5615 4.43605C31.8513 4.14338 31.0905 3.99345 30.3224 3.99482Z" fill="#921F08"/>
</g>

<style>
#Down_Arrow {
	animation: heartbeat 1.5s ease-in-out infinite both;
    transform-box: fill-box;
  transform-origin: center center;
}
@keyframes heartbeat {
  from {
    transform: scale(1);
    transform-origin: center center;
    animation-timing-function: ease-out;
  }
  10% {
    transform: scale(0.91);
    animation-timing-function: ease-in;
  }
  17% {
    transform: scale(0.98);
    animation-timing-function: ease-out;
  }
  33% {
    transform: scale(0.87);
    animation-timing-function: ease-in;
  }
  45% {
    transform: scale(1);
    animation-timing-function: ease-out;
  }
}
</style>


</svg>
