<svg width="50" height="50" viewBox="0 0 50 50" fill="none" xmlns="http://www.w3.org/2000/svg">
<g id="Up Arrow">
<path id="Vector" d="M43.9737 19.2045L31.1245 4.00955C30.371 3.1203 29.4329 2.40581 28.3754 1.91577C27.3178 1.42572 26.1663 1.17188 25.0007 1.17188C23.8352 1.17188 22.6836 1.42572 21.6261 1.91577C20.5686 2.40581 19.6305 3.1203 18.877 4.00955L6.02779 19.2045C3.45943 22.2416 5.62623 26.885 9.61246 26.885H13.8191V42.9896C13.8205 43.7577 13.9731 44.518 14.2683 45.2271C14.5635 45.9362 14.9955 46.5802 15.5396 47.1224C16.0837 47.6645 16.7292 48.0942 17.4394 48.3869C18.1495 48.6796 18.9104 48.8295 19.6785 48.8281H30.323C31.0911 48.8295 31.8519 48.6796 32.5621 48.3869C33.2722 48.0942 33.9178 47.6645 34.4619 47.1224C35.006 46.5802 35.438 45.9362 35.7332 45.2271C36.0284 44.518 36.181 43.7577 36.1824 42.9896V26.8847H40.389C44.3757 26.8847 46.5422 22.242 43.9737 19.2045Z" fill="#27B2EB"/>
<path id="Vector_2" d="M13.8185 25.2301C13.8179 24.9198 13.6941 24.6225 13.4744 24.4035C13.2546 24.1846 12.9569 24.0619 12.6466 24.0624H9.61185C7.37787 24.0624 5.71536 22.604 5.13763 20.7874C4.21283 23.6292 6.27425 26.8844 9.61185 26.8844H13.8185V25.2301ZM40.3884 24.0624H37.3536C37.0434 24.0619 36.7457 24.1846 36.5259 24.4035C36.3061 24.6225 36.1823 24.9198 36.1818 25.2301V26.8841H40.3884C43.726 26.8841 45.7874 23.6293 44.8626 20.7871C44.2847 22.604 42.6224 24.0624 40.3884 24.0624ZM30.3224 46.0052H19.6779C18.9098 46.0065 18.1489 45.8566 17.4388 45.564C16.7286 45.2713 16.0831 44.8416 15.539 44.2995C14.9949 43.7573 14.5629 43.1133 14.2677 42.4042C13.9725 41.6951 13.8199 40.9348 13.8185 40.1667V42.989C13.8199 43.7571 13.9725 44.5174 14.2677 45.2265C14.5629 45.9356 14.9949 46.5796 15.539 47.1217C16.0831 47.6639 16.7286 48.0936 17.4388 48.3862C18.1489 48.6789 18.9098 48.8288 19.6779 48.8274H30.3224C31.0905 48.8288 31.8513 48.6789 32.5615 48.3862C33.2716 48.0936 33.9172 47.6639 34.4613 47.1217C35.0054 46.5796 35.4373 45.9356 35.7326 45.2265C36.0278 44.5174 36.1804 43.7571 36.1818 42.989V40.1667C36.1804 40.9348 36.0278 41.6951 35.7326 42.4042C35.4373 43.1133 35.0054 43.7573 34.4613 44.2995C33.9172 44.8416 33.2716 45.2713 32.5615 45.564C31.8513 45.8566 31.0905 46.0065 30.3224 46.0052Z" fill="#116283"/>
</g>
</svg>
