<svg width="20" height="20" viewBox="0 0 20 20" fill="none" xmlns="http://www.w3.org/2000/svg">
<g id="Up_Arrow">
<path id="Vector" d="M17.5899 7.68179L12.4502 1.60382C12.1488 1.24812 11.7735 0.962325 11.3505 0.766307C10.9275 0.570289 10.4669 0.46875 10.0007 0.46875C9.53447 0.46875 9.07384 0.570289 8.65084 0.766307C8.22783 0.962325 7.85258 1.24812 7.55119 1.60382L2.41151 7.68179C1.38416 8.89663 2.25088 10.754 3.84537 10.754H5.52803V17.1959C5.52858 17.5031 5.58964 17.8072 5.70772 18.0908C5.8258 18.3745 5.99859 18.6321 6.21623 18.849C6.43387 19.0658 6.69209 19.2377 6.97615 19.3548C7.26021 19.4718 7.56454 19.5318 7.87178 19.5312H12.1296C12.4368 19.5318 12.7412 19.4718 13.0252 19.3548C13.3093 19.2377 13.5675 19.0658 13.7851 18.849C14.0028 18.6321 14.1756 18.3745 14.2937 18.0908C14.4117 17.8072 14.4728 17.5031 14.4733 17.1959V10.7539H16.156C17.7507 10.7539 18.6173 8.89679 17.5899 7.68179Z" fill="#27B2EB"/>
<path id="Vector_2" d="M5.52779 10.0916C5.52756 9.96754 5.47805 9.84862 5.39014 9.76103C5.30223 9.67344 5.18313 9.62435 5.05904 9.62457H3.84513C2.95154 9.62457 2.28654 9.04121 2.05544 8.31457C1.68552 9.45129 2.51009 10.7534 3.84513 10.7534H5.52779V10.0916ZM16.1558 9.62457H14.9418C14.8178 9.62435 14.6987 9.67344 14.6107 9.76103C14.5228 9.84862 14.4733 9.96754 14.4731 10.0916V10.7532H16.1558C17.4908 10.7532 18.3154 9.45133 17.9454 8.31445C17.7143 9.04121 17.0493 9.62457 16.1558 9.62457ZM12.1293 18.4017H7.87154C7.5643 18.4022 7.25996 18.3423 6.9759 18.2252C6.69184 18.1081 6.43362 17.9363 6.21599 17.7194C5.99835 17.5025 5.82556 17.2449 5.70747 16.9613C5.58939 16.6776 5.52833 16.3735 5.52779 16.0663V17.1952C5.52833 17.5024 5.58939 17.8066 5.70747 18.0902C5.82556 18.3738 5.99835 18.6314 6.21599 18.8483C6.43362 19.0652 6.69184 19.237 6.9759 19.3541C7.25996 19.4712 7.5643 19.5311 7.87154 19.5306H12.1293C12.4366 19.5311 12.7409 19.4712 13.025 19.3541C13.309 19.237 13.5673 19.0652 13.7849 18.8483C14.0025 18.6314 14.1753 18.3738 14.2934 18.0902C14.4115 17.8066 14.4726 17.5024 14.4731 17.1952V16.0663C14.4726 16.3735 14.4115 16.6776 14.2934 16.9613C14.1753 17.2449 14.0025 17.5025 13.7849 17.7194C13.5673 17.9363 13.309 18.1081 13.025 18.2252C12.7409 18.3423 12.4366 18.4022 12.1293 18.4017Z" fill="#116283"/>
</g>

<style>
#Up_Arrow {
	animation: heartbeat 1.5s ease-in-out infinite both;
    transform-box: fill-box;
  transform-origin: center center;
}
@keyframes heartbeat {
  from {
    transform: scale(1);
    transform-origin: center center;
    animation-timing-function: ease-out;
  }
  10% {
    transform: scale(0.91);
    animation-timing-function: ease-in;
  }
  17% {
    transform: scale(0.98);
    animation-timing-function: ease-out;
  }
  33% {
    transform: scale(0.87);
    animation-timing-function: ease-in;
  }
  45% {
    transform: scale(1);
    animation-timing-function: ease-out;
  }
}
</style>

</svg>
