<svg width="20" height="20" viewBox="0 0 20 20" fill="none" xmlns="http://www.w3.org/2000/svg">
<g id="Up_Arrow_2" clip-path="url(#clip0_1558_1375)">
<path id="Vector" d="M2.40818 12.3182L7.54787 18.3962C7.84926 18.7519 8.2245 19.0377 8.64751 19.2337C9.07052 19.4297 9.53114 19.5313 9.99736 19.5313C10.4636 19.5313 10.9242 19.4297 11.3472 19.2337C11.7702 19.0377 12.1455 18.7519 12.4469 18.3962L17.5865 12.3182C18.6139 11.1034 17.7472 9.24598 16.1527 9.24598L14.47 9.24598L14.47 2.80415C14.4695 2.49691 14.4084 2.19279 14.2903 1.90915C14.1722 1.62551 13.9995 1.36791 13.7818 1.15105C13.5642 0.934184 13.306 0.762313 13.0219 0.645246C12.7378 0.528179 12.4335 0.46821 12.1263 0.468759L7.86845 0.468758C7.56122 0.468209 7.25688 0.528178 6.97282 0.645245C6.68876 0.762313 6.43054 0.934184 6.2129 1.15105C5.99527 1.36791 5.82247 1.62551 5.70439 1.90915C5.58631 2.19279 5.52525 2.49691 5.5247 2.80415L5.5247 9.2461L3.84205 9.2461C2.24736 9.2461 1.38076 11.1032 2.40818 12.3182Z" fill="#27B2EB"/>
<path id="Vector_2" d="M14.4703 9.90641C14.4705 10.0305 14.52 10.1494 14.6079 10.237C14.6958 10.3246 14.8149 10.3737 14.939 10.3735L16.1529 10.3735C17.0465 10.3735 17.7115 10.9568 17.9426 11.6835C18.3125 10.5468 17.488 9.24469 16.1529 9.24469L14.4703 9.24469L14.4703 9.90641ZM3.84229 10.3735L5.0562 10.3735C5.18029 10.3737 5.29939 10.3246 5.3873 10.237C5.47521 10.1494 5.52472 10.0305 5.52495 9.90641L5.52495 9.24481L3.84229 9.24481C2.50725 9.24481 1.68268 10.5467 2.0526 11.6836C2.28378 10.9568 2.9487 10.3735 3.84229 10.3735ZM7.8687 1.59637L12.1265 1.59637C12.4337 1.59582 12.7381 1.65579 13.0221 1.77286C13.3062 1.88993 13.5644 2.0618 13.7821 2.27866C13.9997 2.49552 14.1725 2.75312 14.2906 3.03676C14.4087 3.3204 14.4697 3.62452 14.4703 3.93176L14.4703 2.80285C14.4697 2.49562 14.4087 2.1915 14.2906 1.90786C14.1725 1.62422 13.9997 1.36661 13.7821 1.14975C13.5644 0.932888 13.3062 0.761018 13.0221 0.643951C12.7381 0.526883 12.4337 0.466913 12.1265 0.467462L7.8687 0.467461C7.56146 0.466912 7.25712 0.526883 6.97306 0.64395C6.689 0.761018 6.43078 0.932888 6.21315 1.14975C5.99551 1.36661 5.82272 1.62422 5.70464 1.90786C5.58655 2.1915 5.5255 2.49562 5.52495 2.80285L5.52495 3.93176C5.5255 3.62452 5.58655 3.3204 5.70464 3.03676C5.82272 2.75312 5.99551 2.49552 6.21315 2.27866C6.43078 2.0618 6.689 1.88992 6.97306 1.77286C7.25712 1.65579 7.56146 1.59582 7.8687 1.59637Z" fill="#116283"/>
</g>
<defs>
<clipPath id="clip0_1558_1375">
<rect width="20" height="20" fill="white" transform="translate(20 20) rotate(-180)"/>
</clipPath>
</defs>

<style>
#Up_Arrow_2{
	animation: heartbeat 1.5s ease-in-out infinite both;
    transform-box: fill-box;
  transform-origin: center center;
}
@keyframes heartbeat {
  from {
    transform: scale(1);
    transform-origin: center center;
    animation-timing-function: ease-out;
  }
  10% {
    transform: scale(0.91);
    animation-timing-function: ease-in;
  }
  17% {
    transform: scale(0.98);
    animation-timing-function: ease-out;
  }
  33% {
    transform: scale(0.87);
    animation-timing-function: ease-in;
  }
  45% {
    transform: scale(1);
    animation-timing-function: ease-out;
  }
}
</style>
</svg>
